<svg width="36.8" height="36.8" viewBox="0 0 36.8 36.8" fill="none" xmlns="http://www.w3.org/2000/svg">
<g id="IlluFocus">
<path id="Vector" d="M29.67 4.13989H5.29001C4.65489 4.13989 4.14001 4.65477 4.14001 5.28989C4.14001 5.92502 4.65489 6.43989 5.29001 6.43989H29.67C30.3051 6.43989 30.82 5.92502 30.82 5.28989C30.82 4.65477 30.3051 4.13989 29.67 4.13989Z" fill="white" fill-opacity="0.18"/>
<path id="Vector_2" d="M23.23 8.28003H5.29001C4.65489 8.28003 4.14001 8.7949 4.14001 9.43003C4.14001 10.0652 4.65489 10.58 5.29001 10.58H23.23C23.8651 10.58 24.38 10.0652 24.38 9.43003C24.38 8.7949 23.8651 8.28003 23.23 8.28003Z" fill="white" fill-opacity="0.14"/>
<path id="Vector_3" d="M32.66 13.3401H4.13997C2.86971 13.3401 1.83997 14.3698 1.83997 15.6401C1.83997 16.9103 2.86971 17.9401 4.13997 17.9401H32.66C33.9302 17.9401 34.96 16.9103 34.96 15.6401C34.96 14.3698 33.9302 13.3401 32.66 13.3401Z" fill="white" fill-opacity="0.14"/>
<path id="Vector_4" d="M32.43 14.03H4.37001C3.48083 14.03 2.76001 14.7509 2.76001 15.64C2.76001 16.5292 3.48083 17.25 4.37001 17.25H32.43C33.3192 17.25 34.04 16.5292 34.04 15.64C34.04 14.7509 33.3192 14.03 32.43 14.03Z" fill="white" fill-opacity="0.85"/>
<path id="Vector_5" d="M2.3 13.5699C2.3 12.9348 1.78513 12.4199 1.15 12.4199C0.514872 12.4199 0 12.9348 0 13.5699V17.7099C0 18.345 0.514872 18.8599 1.15 18.8599C1.78513 18.8599 2.3 18.345 2.3 17.7099V13.5699Z" fill="white" fill-opacity="0.4"/>
<path id="Vector_6" d="M36.8 13.5699C36.8 12.9348 36.2851 12.4199 35.65 12.4199C35.0149 12.4199 34.5 12.9348 34.5 13.5699V17.7099C34.5 18.345 35.0149 18.8599 35.65 18.8599C36.2851 18.8599 36.8 18.345 36.8 17.7099V13.5699Z" fill="white" fill-opacity="0.4"/>
<path id="Vector_7" d="M27.83 20.7H5.29001C4.65489 20.7 4.14001 21.2148 4.14001 21.85C4.14001 22.4851 4.65489 23 5.29001 23H27.83C28.4651 23 28.98 22.4851 28.98 21.85C28.98 21.2148 28.4651 20.7 27.83 20.7Z" fill="white" fill-opacity="0.14"/>
<path id="Vector_8" d="M21.39 24.8401H5.29001C4.65489 24.8401 4.14001 25.355 4.14001 25.9901C4.14001 26.6252 4.65489 27.1401 5.29001 27.1401H21.39C22.0251 27.1401 22.54 26.6252 22.54 25.9901C22.54 25.355 22.0251 24.8401 21.39 24.8401Z" fill="white" fill-opacity="0.1"/>
<path id="Vector_9" d="M14.95 28.98H5.29001C4.65489 28.98 4.14001 29.4949 4.14001 30.13C4.14001 30.7651 4.65489 31.28 5.29001 31.28H14.95C15.5851 31.28 16.1 30.7651 16.1 30.13C16.1 29.4949 15.5851 28.98 14.95 28.98Z" fill="white" fill-opacity="0.07"/>
<path id="Vector_10" d="M30.59 12.8799H28.75C27.0987 12.8799 25.76 14.2186 25.76 15.8699C25.76 17.5212 27.0987 18.8599 28.75 18.8599H30.59C32.2413 18.8599 33.58 17.5212 33.58 15.8699C33.58 14.2186 32.2413 12.8799 30.59 12.8799Z" fill="white" fill-opacity="0.22" stroke="white" stroke-opacity="0.38" stroke-width="0.46"/>
<path id="P1" d="M28.2034 17.03V14.6882H29.1273C29.3049 14.6882 29.4562 14.7221 29.5813 14.79C29.7063 14.8571 29.8016 14.9504 29.8671 15.0701C29.9334 15.189 29.9666 15.3263 29.9666 15.4818C29.9666 15.6373 29.9331 15.7745 29.866 15.8934C29.7989 16.0123 29.7017 16.105 29.5744 16.1713C29.4478 16.2376 29.2946 16.2708 29.1147 16.2708H28.5258V15.874H29.0347C29.13 15.874 29.2085 15.8576 29.2702 15.8248C29.3327 15.7913 29.3792 15.7452 29.4097 15.6865C29.441 15.627 29.4566 15.5588 29.4566 15.4818C29.4566 15.404 29.441 15.3362 29.4097 15.2782C29.3792 15.2195 29.3327 15.1742 29.2702 15.1422C29.2077 15.1094 29.1284 15.093 29.0324 15.093H28.6985V17.03H28.2034ZM31.2933 14.6882V17.03H30.7982V15.1582H30.7845L30.2482 15.4944V15.0553L30.8279 14.6882H31.2933Z" fill="white"/>
</g>
</svg>
